<?xml version="1.0" encoding="UTF-8" standalone="no"?><!DOCTYPE svg PUBLIC "-//W3C//DTD SVG 1.1//EN" "http://www.w3.org/Graphics/SVG/1.1/DTD/svg11.dtd"><svg width="100%" height="100%" viewBox="0 0 4016 2598" version="1.1" xmlns="http://www.w3.org/2000/svg" xmlns:xlink="http://www.w3.org/1999/xlink" xml:space="preserve" xmlns:serif="http://www.serif.com/" style="fill-rule:evenodd;clip-rule:evenodd;stroke-linejoin:round;stroke-miterlimit:2;"><g><path d="M2520.768,32.377c0,2.196 2.086,2.745 16.14,3.843c9.442,0.769 13.175,1.537 16.14,3.294c2.086,1.318 6.478,2.635 9.662,3.074c3.184,0.329 7.795,1.757 10.211,3.074c2.415,1.427 6.807,2.855 9.662,3.294c2.855,0.439 6.478,1.757 8.015,3.074c1.537,1.208 5.051,2.635 7.795,3.074c2.635,0.549 6.148,1.976 7.686,3.184c1.537,1.208 4.721,2.745 7.137,3.294c2.306,0.659 6.039,2.415 8.235,3.843c2.196,1.537 4.502,2.745 5.16,2.745c0.769,0 2.964,1.208 4.941,2.635c2.086,1.537 5.051,3.074 6.697,3.404c1.647,0.329 4.172,1.867 5.49,3.404c1.427,1.427 3.733,2.635 5.051,2.635c1.318,0 4.392,1.647 6.807,3.513c2.525,1.976 7.356,5.49 10.87,7.795c6.588,4.282 8.344,5.49 22.618,16.469c14.383,10.979 46.223,42.051 85.31,83.224c28.437,29.974 66.865,69.939 85.859,89.372c8.784,9.003 18.665,19.434 21.959,23.057c9.552,10.65 47.431,48.419 65.108,64.888c24.265,22.618 40.075,34.256 59.289,43.918c4.282,2.086 8.893,4.611 10.43,5.38c1.537,0.878 3.623,1.647 4.721,1.647c1.098,0 4.062,1.208 6.588,2.635c2.525,1.427 7.027,2.964 9.991,3.404c3.074,0.439 7.686,1.867 10.43,3.294c2.745,1.427 7.576,2.855 10.54,3.294c3.074,0.329 8.344,1.647 11.858,2.855c3.513,1.098 10.87,2.415 16.469,2.745c5.6,0.329 15.042,1.318 21.08,2.086c8.893,1.208 42.381,1.537 172.377,1.537c99.474,0 166.009,0.439 173.475,1.208c6.697,0.549 23.716,1.537 37.879,1.976c20.532,0.769 26.68,1.318 30.193,2.855c2.525,1.098 9.662,2.306 16.689,2.964c7.137,0.549 15.152,1.867 18.665,3.184c3.513,1.208 9.881,2.525 14.054,2.855c4.721,0.439 9.552,1.647 12.736,3.184c2.745,1.427 7.356,2.855 10.43,3.294c2.964,0.439 7.576,1.867 10.321,3.294c2.745,1.318 7.246,2.745 10.101,3.184c2.855,0.439 6.368,1.757 7.905,2.964c1.537,1.208 5.49,2.635 8.784,3.184c3.404,0.549 8.235,2.196 10.87,3.733c2.635,1.537 6.258,2.855 8.015,2.855c1.867,0 4.941,1.208 6.917,2.635c1.867,1.427 5.6,3.184 8.235,3.843c2.635,0.659 5.38,1.867 6.148,2.855c0.769,0.878 3.404,2.196 5.819,2.855c2.525,0.659 5.929,2.415 7.686,3.843c1.757,1.427 4.282,2.635 5.6,2.635c1.427,0 3.843,0.988 5.38,2.196c1.537,1.208 4.941,3.184 7.466,4.392c8.125,3.843 16.689,8.674 17.457,9.772c0.329,0.659 2.415,1.867 4.611,2.745c2.196,0.988 4.282,2.196 4.721,2.855c0.439,0.659 2.306,1.757 4.282,2.635c1.867,0.769 4.282,2.196 5.16,3.074c0.878,0.988 3.404,2.525 5.38,3.623c2.086,1.098 6.807,4.172 10.43,6.807c3.623,2.635 9.333,6.588 12.626,8.784c3.294,2.196 7.576,5.27 9.442,6.807c1.867,1.537 5.27,4.282 7.576,6.148c2.415,1.757 5.819,4.611 7.686,6.148c1.757,1.537 5.819,4.721 8.784,7.027c6.697,4.941 30.852,27.449 46.663,43.369c21.19,21.19 36.342,37.989 45.016,49.956c2.745,3.843 7.246,9.881 10.211,13.614c2.855,3.733 5.16,7.137 5.16,7.576c0,0.439 2.525,4.502 5.6,9.003c3.074,4.392 6.588,10.211 7.686,12.846c1.098,2.635 2.745,5.051 3.623,5.38c0.878,0.329 1.976,2.086 2.306,3.733c0.439,1.757 2.196,5.051 3.953,7.246c1.757,2.196 3.184,4.611 3.184,5.38c0,0.769 1.976,4.611 4.392,8.344c2.415,3.843 6.917,12.187 9.991,18.555c3.184,6.368 6.368,12.297 7.027,13.175c0.769,0.878 1.976,3.623 2.745,6.039c0.769,2.415 2.525,6.368 3.953,8.893c1.427,2.415 2.635,5.49 2.635,6.697c0,1.208 1.208,4.502 2.745,7.356c1.537,2.855 3.294,7.466 3.953,10.211c0.549,2.745 1.976,6.368 3.074,7.905c1.208,1.647 2.415,5.27 2.855,8.235c0.439,2.855 1.976,7.356 3.404,9.881c1.318,2.415 2.855,6.917 3.294,9.991c0.329,2.964 1.757,7.466 2.855,9.772c1.208,2.415 2.635,7.795 3.184,12.077c0.549,4.172 1.976,9.662 3.294,12.077c1.427,2.745 2.635,7.795 3.184,13.285c0.439,5.27 1.647,10.54 2.964,13.175c1.647,3.184 2.525,7.576 3.074,15.92c0.439,6.368 1.867,15.701 3.294,20.861c1.976,7.137 2.745,13.505 3.294,27.449c0.329,9.881 1.098,20.422 1.647,23.276c3.513,18.336 4.282,130.765 1.208,173.255c-0.659,8.784 -1.427,27.009 -1.757,40.624c-1.867,84.541 -2.745,107.708 -4.392,118.029c-0.988,6.478 -2.415,27.009 -3.184,49.517c-0.769,21.19 -1.757,39.087 -2.196,39.855c-0.769,1.098 -2.196,17.567 -3.843,44.576c-0.878,13.944 -1.647,17.018 -4.062,17.018c-3.843,0 -4.062,-3.953 -4.392,-62.363c-0.11,-31.621 -0.549,-60.606 -0.988,-64.23c-0.329,-3.733 -1.318,-12.297 -2.196,-18.885c-0.878,-7.027 -2.086,-34.036 -2.745,-64.23c-0.659,-28.656 -1.867,-58.63 -2.745,-66.425c-2.306,-21.3 -3.843,-50.286 -3.953,-77.075c-0.11,-27.009 -1.537,-60.497 -3.074,-72.794c-0.659,-4.502 -1.647,-18.006 -2.306,-30.084c-0.878,-14.932 -1.976,-24.265 -3.404,-29.644c-1.208,-4.282 -2.635,-13.175 -3.184,-19.763c-0.549,-6.588 -2.086,-15.152 -3.404,-18.994c-1.208,-3.843 -2.635,-11.089 -3.074,-16.14c-0.659,-6.368 -1.647,-10.43 -3.184,-12.956c-1.537,-2.415 -2.745,-6.917 -3.294,-12.517c-0.549,-4.831 -1.976,-10.65 -3.184,-13.066c-1.208,-2.415 -2.635,-6.807 -3.074,-9.881c-0.439,-2.964 -1.976,-7.466 -3.404,-9.991c-1.427,-2.415 -2.635,-5.929 -2.635,-7.686c0,-1.757 -1.537,-6.148 -3.294,-9.772c-1.757,-3.623 -3.294,-7.576 -3.294,-8.784c0,-1.208 -1.318,-4.172 -2.745,-6.588c-1.537,-2.415 -2.745,-5.38 -2.745,-6.697c0,-1.318 -1.427,-4.941 -3.184,-8.235c-1.647,-3.294 -3.513,-7.466 -3.843,-9.442c-0.439,-1.976 -1.647,-4.611 -2.745,-6.039c-1.098,-1.427 -2.525,-4.392 -3.294,-6.588c-0.769,-2.196 -1.976,-4.611 -2.855,-5.27c-0.878,-0.659 -2.306,-3.623 -3.294,-6.588c-0.988,-2.855 -2.635,-6.039 -3.843,-7.137c-1.098,-0.988 -2.306,-2.964 -2.635,-4.392c-0.439,-1.537 -1.757,-4.392 -3.184,-6.478c-1.318,-2.086 -3.843,-6.148 -5.49,-9.113c-6.148,-10.54 -15.81,-24.923 -22.727,-33.926c-2.635,-3.623 -6.588,-9.003 -8.674,-11.968c-2.086,-3.074 -5.27,-7.246 -7.137,-9.442c-1.867,-2.086 -6.368,-8.015 -9.991,-13.175c-7.795,-10.87 -45.016,-48.529 -59.179,-59.728c-5.38,-4.282 -12.956,-10.43 -17.018,-13.834c-3.953,-3.294 -11.199,-8.893 -16.03,-12.407c-4.831,-3.513 -9.991,-7.356 -11.528,-8.454c-1.537,-1.098 -4.941,-3.294 -7.686,-4.831c-2.745,-1.537 -7.137,-4.282 -9.881,-6.039c-2.745,-1.867 -7.466,-4.502 -10.43,-5.929c-3.074,-1.427 -6.148,-3.404 -6.917,-4.282c-0.769,-0.878 -2.745,-1.976 -4.282,-2.415c-1.647,-0.329 -4.392,-1.867 -6.148,-3.404c-1.757,-1.427 -4.062,-2.635 -5.051,-2.635c-1.098,0 -3.733,-1.208 -5.929,-2.745c-2.196,-1.427 -5.929,-3.184 -8.235,-3.843c-2.306,-0.549 -5.16,-1.976 -6.148,-3.184c-1.098,-1.098 -3.733,-2.415 -5.929,-2.855c-2.196,-0.439 -5.38,-1.976 -7.137,-3.404c-1.757,-1.427 -4.392,-2.635 -5.929,-2.635c-1.647,0 -4.941,-1.208 -7.466,-2.745c-2.635,-1.427 -6.807,-2.964 -9.442,-3.404c-2.635,-0.329 -6.588,-1.647 -8.674,-2.855c-2.086,-1.208 -7.356,-2.855 -11.748,-3.733c-4.392,-0.769 -9.223,-2.306 -10.65,-3.294c-1.537,-0.878 -6.258,-2.196 -10.65,-2.855c-4.831,-0.659 -9.333,-1.976 -11.199,-3.294c-2.086,-1.537 -5.929,-2.525 -11.089,-3.074c-4.282,-0.439 -10.54,-1.976 -13.834,-3.294c-4.282,-1.757 -9.772,-2.635 -19.214,-3.294c-8.344,-0.549 -15.042,-1.647 -18.116,-2.964c-4.721,-1.867 -15.152,-1.976 -223.98,-2.525l-219.039,-0.549l-7.466,-2.525c-4.502,-1.537 -12.297,-2.964 -19.434,-3.513c-8.015,-0.659 -13.724,-1.757 -17.238,-3.294c-2.855,-1.208 -8.125,-2.745 -11.858,-3.184c-3.623,-0.549 -8.344,-1.976 -10.43,-3.184c-2.086,-1.208 -6.258,-2.635 -9.333,-3.074c-2.964,-0.329 -7.466,-1.867 -9.881,-3.184c-2.415,-1.427 -6.148,-2.855 -8.344,-3.184c-2.306,-0.439 -5.27,-1.647 -6.697,-2.745c-1.427,-1.208 -4.611,-2.635 -7.137,-3.294c-2.415,-0.659 -5.6,-2.196 -7.137,-3.294c-1.427,-1.208 -4.611,-2.635 -7.027,-3.294c-2.525,-0.659 -5.38,-2.196 -6.478,-3.404c-1.098,-1.208 -2.415,-2.196 -2.855,-2.196c-1.867,0 -6.148,-2.415 -10.87,-6.039c-2.745,-2.086 -6.917,-4.831 -9.333,-6.148c-2.415,-1.318 -6.917,-4.502 -9.881,-7.027c-3.074,-2.635 -8.893,-7.027 -12.956,-9.772c-4.062,-2.745 -8.235,-5.929 -9.333,-6.917c-1.098,-1.098 -6.917,-6.478 -12.956,-11.858c-5.929,-5.49 -14.603,-13.505 -19.324,-18.006c-4.611,-4.392 -9.881,-9.113 -11.638,-10.43c-1.647,-1.208 -7.466,-7.027 -12.846,-12.736c-37.22,-39.855 -178.855,-182.917 -200.484,-202.57c-6.697,-6.039 -14.273,-12.407 -16.799,-14.273c-6.148,-4.282 -11.968,-8.674 -18.775,-14.383c-2.964,-2.525 -7.246,-5.38 -9.333,-6.478c-2.086,-0.988 -4.831,-2.745 -6.039,-3.843c-1.208,-0.988 -3.623,-2.306 -5.49,-2.635c-1.757,-0.439 -4.282,-1.757 -5.49,-2.855c-1.208,-1.098 -4.282,-2.525 -6.697,-3.184c-2.525,-0.659 -5.819,-2.196 -7.246,-3.404c-1.537,-1.098 -5.709,-2.525 -9.333,-3.184c-3.733,-0.549 -8.674,-2.086 -11.089,-3.294c-2.745,-1.427 -8.344,-2.635 -15.591,-3.294c-6.148,-0.659 -11.528,-1.427 -11.968,-1.647c-3.843,-2.415 -56.654,-2.745 -504.065,-3.074l-484.741,-0.329l-5.6,2.415c-3.074,1.318 -9.881,2.855 -15.042,3.404c-5.929,0.659 -10.76,1.867 -13.066,3.184c-1.976,1.208 -5.38,2.525 -7.576,2.855c-2.086,0.329 -5.819,1.867 -8.125,3.404c-2.306,1.537 -5.27,2.855 -6.588,2.855c-1.318,0 -3.733,0.988 -5.27,2.196c-1.537,1.208 -4.941,3.074 -7.576,4.282c-2.635,1.098 -5.38,2.855 -6.258,3.843c-0.769,0.988 -2.086,1.757 -2.745,1.757c-1.208,0 -9.442,5.929 -14.932,10.76c-1.537,1.318 -7.905,6.478 -14.273,11.419c-6.807,5.38 -25.911,23.496 -46.663,44.247c-34.585,34.695 -47.651,48.09 -91.129,93.325c-29.864,31.072 -83.663,85.09 -84.871,85.09c-0.549,0 -5.051,4.062 -10.211,9.113c-5.051,5.051 -12.956,12.517 -17.457,16.689c-4.502,4.062 -10.43,9.552 -13.175,11.968c-2.745,2.525 -7.137,6.148 -9.881,8.125c-2.745,1.976 -8.454,6.258 -12.846,9.552c-4.282,3.184 -9.662,6.917 -12.077,8.235c-2.306,1.208 -6.368,3.733 -9.113,5.49c-2.745,1.757 -6.917,4.172 -9.333,5.38c-2.415,1.098 -5.27,3.074 -6.478,4.282c-1.098,1.318 -3.513,2.635 -5.38,3.074c-1.976,0.439 -5.051,1.867 -6.917,3.294c-1.867,1.427 -4.172,2.635 -5.051,2.635c-0.878,0 -3.953,1.208 -6.807,2.745c-2.855,1.537 -7.466,3.294 -10.211,3.953c-2.745,0.549 -6.368,1.976 -7.905,3.074c-1.537,1.098 -4.611,2.415 -6.697,2.855c-2.086,0.439 -5.6,1.757 -7.686,2.964c-2.086,1.208 -7.356,2.855 -11.748,3.733c-4.392,0.769 -9.333,2.306 -10.87,3.404c-1.867,1.098 -6.478,2.086 -13.395,2.635c-7.137,0.549 -12.626,1.647 -16.689,3.404l-6.039,2.525l-438.079,1.098l-8.235,2.415c-5.16,1.427 -13.395,2.635 -21.959,3.074c-9.442,0.549 -16.14,1.537 -21.41,3.294c-4.172,1.318 -11.858,2.745 -17.018,3.074c-6.697,0.439 -11.089,1.427 -15.371,3.404c-3.294,1.537 -7.686,2.855 -9.772,2.855c-2.086,0 -6.478,1.318 -9.772,2.855c-3.294,1.537 -8.784,3.074 -12.187,3.404c-3.404,0.329 -8.125,1.647 -10.54,3.074c-2.415,1.318 -6.807,2.855 -9.881,3.294c-2.964,0.439 -7.137,1.757 -9.223,2.964c-1.976,1.318 -5.819,2.745 -8.564,3.184c-2.635,0.549 -6.258,1.976 -8.015,3.184c-1.757,1.208 -4.721,2.525 -6.807,2.964c-1.976,0.329 -5.051,1.647 -6.697,2.855c-1.757,1.208 -5.38,2.745 -8.015,3.623c-2.745,0.769 -6.258,2.415 -7.795,3.733c-1.537,1.208 -3.623,2.196 -4.611,2.306c-0.988,0 -5.709,2.196 -10.54,4.941c-4.831,2.635 -10.54,5.6 -12.626,6.478c-2.086,0.878 -5.051,2.415 -6.588,3.294c-1.537,0.878 -4.172,2.306 -6.039,3.184c-1.757,0.878 -6.478,3.623 -10.43,6.039c-3.953,2.525 -8.564,5.38 -10.211,6.478c-11.638,7.027 -25.692,17.128 -39.745,28.766c-6.258,5.16 -15.591,12.736 -20.751,17.018c-5.27,4.172 -15.371,13.614 -22.398,20.861c-15.152,15.371 -42.82,47.651 -49.078,57.093c-2.415,3.623 -6.697,9.442 -9.552,12.846c-2.745,3.404 -5.49,7.356 -5.819,8.674c-0.439,1.427 -3.184,5.6 -6.148,9.333c-2.855,3.733 -6.039,8.454 -7.027,10.54c-0.878,1.976 -3.404,6.368 -5.49,9.662c-2.086,3.294 -4.831,8.235 -6.039,10.979c-1.318,2.745 -2.964,5.709 -3.733,6.588c-0.769,0.878 -1.976,3.294 -2.635,5.27c-0.659,1.976 -2.196,4.941 -3.294,6.588c-1.208,1.647 -2.415,4.721 -2.855,6.917c-0.329,2.086 -1.867,5.49 -3.294,7.466c-1.427,1.976 -2.964,5.38 -3.404,7.576c-0.439,2.196 -1.647,5.051 -2.855,6.368c-1.208,1.318 -2.525,4.831 -3.074,7.795c-0.439,3.074 -1.867,7.137 -3.074,9.223c-1.318,2.086 -2.745,5.709 -3.184,8.125c-0.329,2.415 -1.867,6.368 -3.184,8.784c-1.427,2.415 -2.855,7.137 -3.294,10.43c-0.329,3.294 -1.647,7.576 -2.745,9.442c-1.208,1.867 -2.635,7.027 -3.294,11.419c-0.659,4.392 -2.086,9.552 -3.294,11.528c-1.208,1.867 -2.415,6.368 -2.855,9.991c-0.329,3.513 -1.867,8.564 -3.184,10.979c-1.537,2.964 -2.745,7.576 -3.294,13.066c-0.439,4.611 -1.757,11.748 -2.855,15.701c-1.318,4.392 -2.635,13.834 -3.294,23.057c-0.659,10.211 -1.867,18.116 -3.294,22.508c-1.867,5.49 -2.415,11.419 -3.184,31.511c-0.549,13.614 -1.757,29.095 -2.745,34.585c-2.086,11.968 -3.843,53.58 -3.843,91.678c0,19.873 -0.769,37.11 -2.635,59.289c-1.647,19.214 -2.635,40.843 -2.745,55.995c-0.11,13.614 -0.769,36.012 -1.318,49.956c-0.659,13.834 -1.098,29.315 -0.988,34.366c0.11,4.941 -0.549,15.042 -1.537,22.508c-0.988,8.235 -1.867,27.009 -2.196,49.078c-0.549,33.487 -1.318,42.82 -3.953,44.467c-3.074,1.867 -3.733,-4.062 -6.588,-59.289c-0.659,-12.077 -1.647,-25.911 -2.196,-30.742c-0.549,-4.831 -1.537,-23.167 -2.086,-40.624c-0.549,-17.567 -1.647,-37.001 -2.196,-43.369c-1.976,-19.324 -4.392,-58.52 -5.051,-82.346c-0.439,-12.407 -1.427,-28.656 -2.306,-36.232c-1.647,-14.054 -3.733,-86.188 -3.623,-130.655c0,-35.244 1.757,-71.915 3.623,-79.711c0.878,-3.623 2.196,-13.285 2.855,-21.41c0.769,-8.454 2.196,-17.457 3.404,-21.08c1.208,-3.513 2.525,-11.748 3.074,-18.226c0.659,-8.125 1.757,-13.614 3.294,-17.238c1.318,-2.964 2.855,-8.674 3.294,-12.626c0.549,-4.062 1.757,-8.564 2.855,-10.101c0.988,-1.537 2.415,-7.027 3.294,-12.187c0.878,-5.16 2.306,-10.54 3.294,-11.968c0.988,-1.537 2.196,-5.709 2.855,-9.442c0.549,-3.623 2.306,-9.003 3.733,-11.748c1.537,-2.855 2.745,-6.697 2.745,-8.564c0,-1.867 1.208,-5.16 2.635,-7.356c1.537,-2.196 3.074,-5.819 3.404,-8.235c0.439,-2.306 1.867,-6.258 3.294,-8.674c1.318,-2.415 2.745,-6.039 3.074,-8.015c0.439,-1.976 1.976,-5.38 3.513,-7.686c1.537,-2.196 2.745,-4.831 2.745,-5.929c0,-2.086 13.505,-28.656 16.579,-32.609c1.208,-1.427 2.086,-3.404 2.086,-4.502c0,-0.988 1.537,-3.733 3.294,-6.039c1.867,-2.306 3.294,-5.051 3.294,-6.148c0,-1.098 1.427,-3.623 3.074,-5.6c3.294,-3.953 7.905,-10.76 10.211,-15.261c0.878,-1.647 3.733,-5.929 6.478,-9.552c2.745,-3.623 5.819,-8.015 6.807,-9.772c1.098,-1.647 4.282,-6.148 7.137,-9.881c2.855,-3.733 6.478,-8.564 8.015,-10.76c2.525,-3.733 21.41,-26.46 34.695,-41.722c11.858,-13.614 26.9,-28.107 46.004,-44.467c10.87,-9.223 20.532,-17.567 21.41,-18.555c2.086,-2.196 8.344,-6.917 18.116,-13.614c4.282,-2.855 10.76,-7.466 14.603,-10.101c3.843,-2.745 7.356,-4.941 7.795,-4.941c0.439,0 1.757,-1.098 2.964,-2.306c1.098,-1.318 4.062,-3.294 6.478,-4.392c2.415,-1.098 6.588,-3.843 9.333,-5.929c2.745,-2.086 7.466,-4.941 10.43,-6.368c3.074,-1.427 6.148,-3.404 7.027,-4.392c0.769,-0.988 3.074,-2.086 5.051,-2.525c2.086,-0.329 4.502,-1.647 5.6,-2.745c0.988,-1.208 3.953,-2.635 6.368,-3.294c2.525,-0.659 5.49,-2.086 6.697,-3.184c1.208,-1.098 3.733,-2.415 5.49,-2.745c1.867,-0.439 5.051,-1.976 7.137,-3.294c2.086,-1.427 5.6,-2.855 7.686,-3.294c2.086,-0.439 5.051,-1.757 6.697,-2.964c1.537,-1.208 4.941,-2.635 7.576,-3.184c2.635,-0.549 6.148,-2.086 7.795,-3.294c1.757,-1.208 5.051,-2.525 7.246,-2.855c2.306,-0.329 6.807,-2.086 10.101,-3.843c3.294,-1.647 6.917,-3.074 8.235,-3.074c1.318,0 3.953,-0.988 6.039,-2.306c2.086,-1.208 6.697,-2.745 10.43,-3.294c3.623,-0.659 8.235,-2.086 10.211,-3.294c1.976,-1.208 6.697,-2.635 10.54,-3.184c3.843,-0.549 9.223,-2.086 11.968,-3.294c2.745,-1.208 9.223,-2.635 14.273,-3.184c5.051,-0.439 10.87,-1.757 12.956,-2.855c2.306,-1.208 8.893,-2.415 17.018,-3.294c8.235,-0.878 14.822,-2.196 17.128,-3.404c2.855,-1.427 7.795,-2.086 20.202,-2.745c9.113,-0.439 22.178,-1.647 29.095,-2.525c6.917,-0.988 21.3,-1.976 31.84,-2.415c23.386,-0.769 23.716,-0.769 24.923,-4.502c0.549,-1.757 1.098,-22.069 1.318,-45.345c0.22,-41.502 1.208,-58.41 3.623,-63.022c5.051,-9.552 15.81,-18.445 24.484,-20.422c8.784,-1.976 40.624,-3.184 74.111,-2.745c31.84,0.329 41.392,1.208 49.188,4.502c5.709,2.415 15.481,13.614 19.104,21.849l3.294,7.356l-0.11,48.529c-0.11,46.772 0,48.639 1.976,50.505c1.976,1.867 7.246,1.867 85.42,1.427c74.221,-0.439 84.102,-0.659 90.91,-2.306c4.282,-1.098 11.528,-2.635 16.25,-3.404c4.721,-0.878 9.772,-2.306 11.309,-3.294c1.427,-0.988 5.49,-2.196 9.003,-2.855c3.404,-0.659 7.246,-2.086 8.454,-3.184c1.208,-1.098 4.392,-2.635 7.137,-3.294c2.745,-0.659 5.929,-2.196 7.137,-3.294c1.208,-1.098 3.953,-2.745 6.039,-3.733c2.086,-0.988 5.819,-2.855 8.235,-4.282c25.033,-13.944 36.232,-23.276 75.209,-62.253c37.659,-37.659 111.002,-111.77 153.712,-155.359c51.274,-52.372 83.883,-82.895 98.485,-91.898c1.647,-1.098 5.051,-3.513 7.466,-5.27c2.415,-1.867 6.368,-4.392 8.784,-5.6c2.415,-1.318 5.38,-3.184 6.588,-4.282c1.208,-1.098 3.953,-2.525 6.148,-3.184c2.196,-0.769 4.831,-2.196 5.929,-3.404c0.988,-1.098 3.294,-2.415 4.941,-2.745c1.647,-0.329 4.611,-1.867 6.697,-3.404c1.976,-1.427 4.392,-2.635 5.49,-2.635c0.988,0 3.623,-1.208 5.819,-2.745c2.196,-1.537 4.721,-2.745 5.49,-2.745c0.878,0 4.282,-1.427 7.686,-3.294c3.404,-1.757 8.015,-3.513 10.321,-3.953c2.196,-0.329 6.039,-1.757 8.454,-3.184c2.415,-1.318 7.137,-2.745 10.54,-3.074c3.404,-0.329 8.344,-1.647 10.979,-2.964c3.294,-1.757 7.905,-2.745 15.261,-3.294c11.748,-0.988 14.603,-1.867 13.834,-3.953c-0.549,-1.318 77.515,-1.537 507.139,-1.537c440.055,0 507.798,0.22 507.798,1.537Z" style="fill:#fff;fill-rule:nonzero;"/><path d="M1560.399,904.912c6.697,1.208 17.128,2.635 23.167,3.294c6.588,0.549 12.736,1.867 15.92,3.294c3.184,1.427 8.893,2.635 15.481,3.184c6.697,0.549 12.297,1.757 15.701,3.294c3.184,1.427 9.003,2.635 15.371,3.184c7.027,0.659 11.309,1.537 13.944,3.184c2.196,1.318 6.917,2.635 10.979,3.074c3.953,0.439 9.003,1.647 11.309,2.855c2.306,1.098 6.807,2.525 10.211,3.184c3.294,0.659 8.564,2.306 11.748,3.733c3.074,1.537 7.246,2.745 9.003,2.745c1.867,0 6.258,1.537 9.881,3.294c3.623,1.867 8.015,3.294 9.881,3.294c1.867,0 5.051,1.208 6.917,2.635c1.976,1.427 5.6,2.855 8.125,3.294c2.415,0.439 6.478,1.976 9.113,3.404c2.525,1.537 5.819,2.745 7.246,2.745c1.537,0 4.392,1.208 6.478,2.745c1.976,1.537 5.49,3.074 7.576,3.404c2.196,0.329 5.709,1.867 7.795,3.184c2.086,1.427 5.38,2.964 7.137,3.404c1.867,0.439 5.051,1.867 7.137,3.294c2.086,1.318 5.709,2.964 7.905,3.623c2.196,0.769 4.611,2.086 5.27,2.855c0.769,0.878 3.294,2.196 5.6,2.745c2.415,0.659 6.148,2.415 8.344,3.843c2.196,1.537 4.721,2.745 5.709,2.745c0.988,0 3.733,1.537 6.039,3.294c2.415,1.867 4.831,3.294 5.49,3.294c0.659,0 2.964,1.208 5.051,2.635c2.086,1.427 4.941,2.855 6.258,3.294c1.318,0.439 5.49,2.855 9.113,5.38c6.148,4.282 10.43,6.807 19.983,12.187c1.976,1.098 4.611,2.855 5.819,3.953c1.208,1.098 4.062,2.525 6.368,3.294c2.306,0.769 4.502,1.976 4.721,2.745c0.329,0.769 4.062,3.513 8.235,6.148c4.282,2.635 10.979,7.466 14.932,10.54c3.953,3.184 7.576,5.819 8.015,5.819c0.439,0 4.172,2.745 8.235,6.039c3.953,3.294 7.686,6.039 8.125,6.039c1.757,0 18.555,13.614 32.279,26.131c15.92,14.493 66.316,65.218 80.479,80.918c10.43,11.528 13.066,14.712 17.457,21.3c1.867,2.745 6.588,8.564 10.76,12.956c4.062,4.392 7.356,8.564 7.356,9.223c0,1.537 7.246,12.626 8.893,13.724c0.659,0.329 2.086,2.745 3.294,5.27c1.098,2.415 3.843,6.697 5.929,9.442c2.086,2.745 5.16,7.356 6.807,10.211c1.757,2.964 3.843,6.697 4.721,8.235c0.988,1.647 3.404,5.819 5.27,9.223c1.976,3.404 4.282,6.807 5.16,7.466c0.878,0.659 2.086,3.074 2.855,5.27c0.769,2.196 2.415,5.49 3.843,7.137c1.427,1.757 2.635,4.172 2.635,5.49c0,1.318 1.537,4.611 3.294,7.246c1.867,2.635 3.294,5.709 3.294,6.807c0,0.988 1.208,3.294 2.635,5.051c1.427,1.757 2.964,5.051 3.404,7.246c0.439,2.196 1.647,5.16 2.745,6.588c1.098,1.318 2.525,4.502 3.184,7.027c0.659,2.415 2.415,6.588 3.843,9.223c1.427,2.635 2.964,6.039 3.404,7.576c0.439,1.537 1.757,4.062 2.855,5.6c1.098,1.537 2.525,5.16 3.074,7.905c0.659,2.745 2.415,7.356 3.953,10.321c1.976,3.623 2.745,6.588 2.525,9.662c-0.329,4.062 -0.549,4.392 -3.623,4.392c-2.855,0 -3.404,-0.549 -4.611,-4.831c-0.769,-2.745 -2.306,-5.929 -3.513,-7.137c-1.208,-1.318 -2.525,-3.843 -2.964,-5.6c-0.439,-1.867 -2.196,-5.38 -3.953,-7.905c-2.855,-4.282 -7.137,-11.638 -13.066,-22.837c-1.318,-2.415 -3.294,-5.38 -4.392,-6.588c-1.098,-1.208 -2.745,-3.953 -3.733,-6.039c-2.525,-5.38 -6.368,-11.638 -9.003,-14.493c-1.208,-1.427 -2.635,-4.062 -3.074,-6.039c-0.329,-1.867 -1.427,-4.062 -2.415,-4.831c-2.086,-1.757 -10.211,-14.163 -10.211,-15.591c0,-0.549 -1.757,-2.964 -3.843,-5.27c-2.086,-2.306 -5.27,-6.807 -7.137,-9.991c-1.757,-3.184 -5.6,-8.454 -8.454,-11.638c-2.964,-3.184 -7.027,-8.015 -9.113,-10.87c-9.333,-12.297 -17.787,-21.849 -33.817,-38.208c-29.315,-30.084 -48.2,-47.321 -68.292,-62.583c-3.184,-2.415 -6.368,-5.051 -7.246,-5.819c-2.635,-2.525 -11.089,-8.784 -13.724,-10.101c-1.427,-0.769 -5.051,-3.513 -8.125,-6.039c-2.964,-2.525 -6.917,-5.49 -8.784,-6.478c-1.757,-0.988 -5.49,-3.513 -8.235,-5.6c-8.015,-6.258 -17.896,-12.626 -19.434,-12.626c-0.769,0 -2.964,-1.427 -4.941,-3.074c-1.976,-1.757 -6.588,-4.831 -10.211,-6.807c-3.623,-1.976 -7.795,-4.611 -9.223,-5.709c-1.427,-1.098 -4.611,-2.525 -7.137,-3.184c-2.415,-0.659 -5.27,-1.867 -6.148,-2.635c-0.878,-0.769 -3.623,-2.415 -6.039,-3.623c-13.285,-6.807 -16.799,-8.674 -19.214,-10.43c-1.427,-0.988 -3.513,-1.867 -4.502,-1.867c-0.988,0 -3.953,-1.427 -6.588,-3.294c-2.635,-1.757 -5.819,-3.294 -7.027,-3.294c-1.208,0 -4.062,-1.208 -6.258,-2.745c-2.306,-1.537 -5.709,-3.074 -7.686,-3.404c-1.976,-0.439 -5.38,-1.867 -7.466,-3.184c-2.086,-1.427 -5.819,-2.855 -8.235,-3.294c-2.415,-0.329 -6.368,-1.867 -8.784,-3.184c-2.415,-1.427 -6.368,-2.855 -8.674,-3.184c-2.306,-0.329 -5.38,-1.647 -6.588,-2.855c-1.318,-1.318 -5.051,-2.745 -8.235,-3.404c-3.184,-0.549 -7.137,-1.976 -8.784,-3.184c-1.537,-1.098 -5.38,-2.415 -8.344,-2.964c-3.074,-0.439 -7.246,-1.867 -9.333,-3.184c-2.086,-1.427 -6.258,-2.855 -9.223,-3.184c-2.964,-0.329 -7.246,-1.757 -9.333,-2.964c-2.196,-1.318 -7.356,-2.745 -11.528,-3.294c-4.172,-0.549 -9.113,-1.976 -11.199,-3.294c-2.306,-1.427 -6.807,-2.525 -12.187,-3.184c-4.721,-0.439 -10.76,-1.867 -13.505,-3.074c-2.964,-1.318 -8.784,-2.415 -14.822,-2.964c-5.929,-0.439 -11.858,-1.537 -14.822,-2.855c-3.513,-1.537 -9.113,-2.415 -19.763,-3.184c-8.125,-0.549 -17.896,-1.757 -21.629,-2.635c-7.356,-1.867 -23.716,-3.513 -44.796,-4.502c-7.246,-0.329 -21.849,-1.098 -32.389,-1.867c-29.425,-1.867 -97.936,1.647 -114.625,5.819c-4.831,1.208 -14.493,2.635 -21.41,3.184c-8.125,0.549 -14.712,1.757 -18.226,3.074c-3.074,1.208 -9.772,2.635 -14.822,3.074c-5.27,0.439 -12.407,1.867 -16.25,3.294c-3.733,1.427 -8.674,2.635 -10.979,2.635c-2.415,0 -6.917,1.427 -10.65,3.294c-4.282,2.086 -8.344,3.184 -11.528,3.294c-3.074,0 -6.807,0.988 -9.991,2.635c-2.745,1.537 -7.686,3.074 -10.979,3.513c-3.294,0.329 -7.905,1.757 -10.321,3.184c-2.415,1.318 -6.368,2.745 -8.674,3.074c-2.306,0.329 -5.38,1.757 -6.697,2.964c-1.427,1.318 -4.941,2.635 -8.454,3.184c-3.294,0.549 -7.905,2.306 -10.211,3.843c-2.306,1.537 -5.38,2.855 -6.917,2.855c-1.537,0 -4.831,1.208 -7.246,2.635c-2.525,1.427 -6.258,2.964 -8.344,3.404c-2.086,0.439 -5.6,1.867 -7.686,3.294c-2.196,1.318 -5.49,2.855 -7.356,3.184c-1.867,0.439 -4.941,1.976 -7.027,3.513c-1.976,1.427 -4.721,2.635 -6.039,2.635c-1.318,0 -3.953,1.208 -5.709,2.745c-1.867,1.537 -4.941,3.074 -7.027,3.513c-1.976,0.329 -5.051,1.867 -6.697,3.294c-1.757,1.318 -4.062,2.525 -5.16,2.525c-1.098,0 -3.513,1.208 -5.27,2.745c-1.867,1.537 -4.941,3.404 -7.027,4.062c-1.976,0.659 -4.502,1.976 -5.6,2.964c-2.745,2.306 -9.113,6.148 -14.493,8.674c-2.415,1.208 -5.38,3.184 -6.478,4.502c-1.208,1.208 -2.635,2.306 -3.294,2.306c-2.964,0 -45.784,31.182 -64.888,47.211c-5.38,4.611 -11.638,9.662 -13.834,11.199c-9.552,7.027 -59.179,55.117 -76.307,74.001c-14.273,15.591 -39.526,45.784 -41.502,49.627c-0.988,1.867 -3.953,6.039 -6.478,9.333c-2.635,3.184 -6.588,8.454 -8.784,11.748c-2.196,3.294 -6.478,9.223 -9.552,13.175c-6.478,8.235 -17.347,24.704 -18.775,28.327c-0.549,1.318 -1.867,3.843 -2.964,5.49c-1.208,1.647 -4.172,6.478 -6.697,10.87c-2.635,4.392 -5.38,8.454 -6.148,9.113c-0.878,0.659 -2.086,3.074 -2.855,5.27c-0.769,2.196 -2.415,5.49 -3.843,7.137c-1.427,1.757 -2.635,4.062 -2.635,5.051c0,1.098 -0.878,3.184 -1.976,4.611c-2.855,3.623 -10.101,18.775 -10.101,20.861c0,0.988 -1.208,3.513 -2.635,5.709c-1.537,2.196 -3.184,5.709 -3.843,7.795c-0.549,2.196 -1.976,5.16 -3.184,6.697c-1.208,1.537 -2.525,4.941 -2.964,7.466c-0.439,2.525 -1.976,6.588 -3.294,9.003c-1.318,2.415 -2.745,5.929 -3.074,7.795c-0.329,1.976 -1.976,5.38 -3.513,7.576c-1.537,2.306 -2.745,5.6 -2.745,7.466c0,1.867 -1.208,5.49 -2.745,8.125c-1.647,2.635 -3.184,7.356 -3.513,10.54c-0.329,3.074 -1.647,7.686 -3.074,10.101c-1.318,2.415 -2.745,6.478 -3.184,9.113c-0.439,2.635 -1.867,7.137 -3.294,9.881c-1.427,2.855 -2.855,8.125 -3.184,11.858c-0.22,3.623 -1.537,8.674 -2.855,11.199c-1.537,2.964 -2.745,8.235 -3.404,14.822c-0.549,5.49 -1.976,12.626 -3.184,15.591c-1.098,3.074 -2.415,9.772 -2.855,14.822c-0.439,5.16 -1.976,13.395 -3.404,18.445c-1.867,6.588 -2.745,13.175 -3.294,24.155c-0.329,8.235 -1.537,23.716 -2.745,34.256c-2.196,21.19 -2.635,43.808 -0.988,61.485c1.098,12.077 2.525,32.609 4.392,62.253c0.769,12.626 1.647,19.214 3.074,23.057c1.318,3.184 2.415,9.772 2.855,16.579c0.549,7.466 1.537,13.395 3.074,17.018c1.208,3.184 2.635,9.772 3.184,14.822c0.549,5.16 1.867,10.87 3.184,13.285c1.208,2.415 2.635,8.235 3.184,12.956c0.439,4.831 1.976,10.65 3.184,13.175c1.318,2.415 2.745,7.356 3.404,10.979c0.549,3.623 2.086,8.235 3.294,10.321c1.318,2.086 2.306,5.49 2.306,7.686c0,2.306 1.427,6.588 3.294,10.101c2.086,3.843 3.294,7.795 3.294,10.43c0,2.745 0.988,5.709 2.635,8.125c1.427,2.086 2.855,5.6 3.294,7.905c0.439,2.196 1.867,5.709 3.294,7.795c1.427,1.976 2.855,5.709 3.294,8.235c0.439,2.525 1.976,6.258 3.404,8.125c1.537,1.976 2.745,4.831 2.745,6.368c0,1.537 1.208,4.611 2.745,6.807c1.537,2.196 3.074,5.38 3.404,7.027c0.439,1.647 2.196,5.6 3.843,8.893c1.757,3.294 3.184,6.807 3.184,7.795c0,1.098 0.878,3.074 2.086,4.502c1.098,1.427 4.282,7.356 7.137,13.066c6.478,12.846 10.54,19.983 13.066,22.727c0.988,1.208 1.867,2.855 1.867,3.843c0,0.878 1.537,3.733 3.294,6.148c1.757,2.525 3.294,4.941 3.294,5.38c0,0.549 2.196,4.062 4.941,8.015c2.745,3.953 5.929,9.113 7.137,11.528c1.098,2.415 4.172,6.807 6.588,9.881c2.415,2.964 5.16,7.246 6.148,9.333c0.988,2.086 4.062,6.478 6.917,9.772c4.502,5.27 10.65,13.614 16.25,22.069c1.098,1.537 3.623,4.831 5.819,7.246c2.086,2.525 7.027,8.893 10.979,14.273c8.015,10.87 60.497,64.12 73.562,74.55c4.502,3.623 15.701,12.736 24.704,20.422c9.113,7.576 18.006,14.603 19.763,15.701c1.867,0.988 5.49,3.513 8.235,5.6c2.745,2.086 6.697,4.831 8.784,6.039c4.721,2.745 10.76,7.137 13.724,9.881c1.208,1.098 3.953,2.745 6.039,3.733c2.086,0.988 6.039,3.404 8.784,5.49c4.721,3.623 19.214,12.736 20.092,12.736c0.769,0 11.858,6.807 15.81,9.552c1.867,1.427 4.172,2.525 5.051,2.525c0.769,0 3.733,1.427 6.368,3.294c2.635,1.757 5.38,3.294 5.929,3.294c0.659,0 3.294,1.537 5.929,3.294c2.635,1.867 5.6,3.294 6.697,3.294c0.988,0 3.404,1.208 5.49,2.745c2.086,1.537 4.502,2.745 5.6,2.745c0.988,0 4.392,1.427 7.686,3.184c3.294,1.647 7.137,3.513 8.674,3.953c1.537,0.439 3.953,1.757 5.49,2.745c1.537,1.098 4.941,2.525 7.686,3.294c2.745,0.769 6.148,2.196 7.686,3.294c1.537,1.098 4.831,2.306 7.137,2.745c2.415,0.439 5.709,1.647 7.356,2.855c1.647,1.098 5.16,2.525 7.905,3.184c2.635,0.549 7.246,2.306 10.101,3.843c2.855,1.537 6.697,2.745 8.674,2.745c1.976,0 5.819,1.208 8.564,2.635c2.745,1.537 7.686,3.184 10.979,3.843c3.184,0.549 7.576,1.976 9.662,3.184c2.086,1.208 6.807,2.525 10.65,2.855c3.843,0.439 9.223,1.757 12.077,3.074c2.855,1.208 8.784,2.635 13.285,3.184c4.392,0.659 9.991,2.086 12.297,3.184c2.415,1.318 8.235,2.635 13.834,3.184c5.27,0.549 11.199,1.647 12.956,2.306c4.392,1.647 19.763,4.392 25.253,4.392c2.415,0 8.125,0.988 12.626,2.196c13.505,3.513 57.752,5.819 96.07,5.051c50.176,-1.098 67.963,-2.196 77.954,-4.721c4.831,-1.318 14.493,-2.635 21.52,-2.964c6.917,-0.329 14.822,-1.318 17.567,-2.196c6.039,-1.867 17.457,-3.733 28.986,-4.502c4.941,-0.439 10.87,-1.647 13.614,-2.855c2.855,-1.208 9.333,-2.525 15.92,-3.074c6.807,-0.659 12.956,-1.867 16.03,-3.184c2.745,-1.318 8.125,-2.635 12.077,-3.074c3.953,-0.439 9.333,-1.867 12.077,-3.184c2.745,-1.318 7.137,-2.745 9.662,-3.184c2.635,-0.439 7.686,-1.976 11.309,-3.404c3.513,-1.537 7.795,-2.745 9.552,-2.745c1.757,0 5.49,-1.208 8.344,-2.745c2.855,-1.537 7.246,-3.074 9.772,-3.404c2.525,-0.439 6.588,-1.867 9.003,-3.184c2.415,-1.427 6.368,-2.964 8.784,-3.294c2.415,-0.439 6.368,-1.976 8.893,-3.404c2.415,-1.427 5.27,-2.635 6.148,-2.635c0.878,0 4.392,-1.427 7.795,-3.294c3.404,-1.867 7.027,-3.294 8.125,-3.294c0.988,0 3.623,-1.208 5.819,-2.745c2.196,-1.537 6.258,-3.184 9.223,-3.733c2.855,-0.549 6.258,-1.976 7.576,-3.184c1.318,-1.208 4.172,-2.525 6.258,-2.964c2.086,-0.439 5.27,-1.976 6.917,-3.404c1.757,-1.427 4.062,-2.635 5.051,-2.635c1.098,0 4.172,-1.427 6.807,-3.294c2.635,-1.757 5.27,-3.294 5.819,-3.294c0.549,0 4.392,-2.306 8.564,-5.27c4.282,-2.855 9.003,-5.929 10.65,-6.917c1.757,-0.878 5.709,-3.623 9.003,-5.929c11.968,-8.784 17.567,-12.626 18.226,-12.626c0.439,0 2.855,-1.098 5.49,-2.306c5.38,-2.635 7.686,-1.867 3.953,1.208c-1.427,1.098 -2.525,2.525 -2.525,3.294c0,1.647 -14.493,15.261 -21.849,20.532c-3.184,2.306 -10.76,8.235 -16.689,13.285c-5.929,4.941 -11.199,9.003 -11.528,9.003c-0.329,0 -4.062,2.196 -8.125,4.941c-4.062,2.745 -9.113,5.709 -11.199,6.478c-2.086,0.878 -4.502,2.415 -5.27,3.404c-0.878,1.098 -4.062,2.964 -7.246,4.392c-3.074,1.318 -5.929,2.964 -6.368,3.623c-0.329,0.659 -2.525,1.757 -4.831,2.525c-2.196,0.659 -5.27,2.306 -6.807,3.404c-5.6,4.282 -12.626,8.564 -14.273,8.564c-0.878,0 -3.843,1.537 -6.478,3.294c-2.635,1.867 -5.6,3.294 -6.697,3.294c-0.988,0 -3.404,1.208 -5.38,2.635c-2.086,1.537 -5.27,3.074 -7.137,3.513c-1.867,0.439 -4.831,1.867 -6.478,3.294c-1.757,1.427 -4.062,2.635 -5.16,2.635c-1.098,0 -4.611,1.427 -7.905,3.074c-3.184,1.757 -7.795,3.404 -10.101,3.843c-2.306,0.329 -5.051,1.427 -6.148,2.415c-1.098,0.988 -4.282,2.525 -7.137,3.294c-2.745,0.878 -6.478,2.525 -8.125,3.733c-1.647,1.208 -5.27,2.525 -7.905,2.964c-2.635,0.329 -6.588,1.867 -8.674,3.184c-2.086,1.318 -6.039,2.855 -8.674,3.184c-2.635,0.439 -6.148,1.757 -7.905,2.855c-1.647,1.208 -5.49,2.635 -8.454,3.294c-2.964,0.549 -7.686,2.196 -10.65,3.733c-2.855,1.537 -6.807,2.855 -8.784,2.855c-1.976,0 -5.709,1.208 -8.344,2.525c-2.745,1.537 -7.905,2.964 -11.858,3.294c-3.953,0.439 -8.564,1.757 -10.54,2.964c-2.086,1.208 -7.137,2.635 -11.638,3.294c-4.502,0.549 -10.43,1.976 -13.285,3.294c-3.294,1.427 -9.223,2.635 -16.03,3.184c-6.478,0.549 -12.407,1.757 -14.493,2.855c-2.525,1.318 -9.113,2.415 -20.751,3.404c-9.772,0.769 -19.214,2.196 -22.069,3.294c-3.404,1.208 -10.76,2.086 -23.057,2.635c-75.648,3.623 -78.393,3.733 -106.72,2.306c-15.261,-0.769 -36.452,-1.867 -46.992,-2.306c-13.724,-0.659 -21.3,-1.537 -26.57,-3.184c-4.062,-1.208 -12.736,-2.525 -19.214,-2.964c-7.466,-0.439 -13.944,-1.537 -17.347,-2.855c-2.964,-1.098 -10.54,-2.525 -16.799,-3.184c-7.356,-0.659 -12.846,-1.757 -15.591,-3.184c-2.306,-1.208 -8.125,-2.635 -12.846,-3.184c-4.721,-0.439 -10.54,-1.867 -12.956,-3.074c-2.415,-1.208 -7.356,-2.635 -10.979,-2.964c-3.623,-0.439 -8.784,-1.976 -11.528,-3.294c-2.745,-1.427 -7.137,-2.855 -9.772,-3.294c-2.635,-0.439 -6.807,-1.976 -9.442,-3.404c-2.525,-1.537 -6.258,-2.745 -8.235,-2.745c-1.976,0 -5.709,-1.208 -8.235,-2.745c-2.635,-1.427 -6.807,-2.964 -9.442,-3.404c-2.635,-0.439 -6.258,-1.867 -8.125,-3.184c-1.757,-1.427 -5.38,-2.855 -7.905,-3.294c-2.525,-0.439 -5.929,-1.757 -7.576,-2.964c-1.537,-1.318 -4.941,-2.745 -7.576,-3.184c-2.525,-0.439 -6.478,-2.086 -8.784,-3.623c-2.306,-1.647 -4.831,-2.855 -5.709,-2.855c-1.647,0 -14.163,-5.49 -18.994,-8.344c-1.537,-0.878 -4.172,-2.306 -6.039,-3.074c-4.941,-2.086 -5.929,-2.635 -13.175,-6.697c-3.623,-2.086 -9.113,-4.941 -12.077,-6.478c-3.074,-1.427 -6.148,-3.404 -6.917,-4.282c-0.769,-0.878 -2.745,-1.976 -4.282,-2.415c-1.647,-0.329 -4.502,-1.757 -6.258,-3.074c-1.867,-1.318 -4.721,-3.184 -6.368,-4.062c-1.537,-0.878 -4.502,-2.525 -6.588,-3.733c-1.976,-1.098 -5.27,-3.513 -7.246,-5.16c-1.976,-1.757 -4.172,-3.184 -4.941,-3.184c-1.427,0 -9.003,-4.721 -14.273,-8.893c-1.647,-1.208 -6.807,-4.831 -11.419,-8.015c-4.611,-3.074 -9.772,-6.588 -11.309,-7.795c-1.647,-1.208 -4.392,-3.184 -6.148,-4.392c-3.733,-2.415 -8.344,-6.258 -17.347,-14.054c-3.513,-3.184 -10.979,-9.113 -16.469,-13.395c-5.6,-4.172 -12.626,-9.991 -15.591,-12.736c-12.407,-11.748 -14.712,-13.724 -25.143,-23.057c-6.148,-5.38 -14.054,-13.066 -17.677,-17.128c-3.733,-4.172 -13.944,-15.371 -22.947,-25.033c-8.893,-9.662 -20.971,-23.496 -26.68,-30.742c-5.819,-7.246 -12.736,-15.591 -15.261,-18.555c-2.635,-2.964 -7.466,-9.442 -10.76,-14.383c-3.294,-5.051 -6.368,-9.333 -6.807,-9.552c-1.208,-0.439 -7.356,-8.564 -9.113,-11.858c-0.769,-1.537 -3.623,-5.6 -6.258,-9.113c-2.635,-3.513 -5.27,-7.686 -5.819,-9.113c-0.549,-1.427 -3.513,-5.819 -6.478,-9.662c-3.074,-3.843 -6.258,-8.674 -7.246,-10.76c-0.988,-1.976 -3.404,-6.588 -5.49,-10.211c-4.392,-7.795 -9.113,-16.689 -12.626,-23.606c-1.318,-2.745 -3.074,-5.709 -3.843,-6.588c-0.769,-0.878 -1.976,-3.623 -2.745,-6.039c-0.769,-2.415 -1.976,-5.16 -2.635,-6.039c-2.086,-2.635 -9.223,-17.787 -9.881,-21.08c-0.439,-1.647 -1.867,-4.831 -3.404,-7.027c-1.537,-2.196 -2.745,-4.831 -2.745,-5.819c0,-1.098 -1.208,-3.513 -2.745,-5.6c-1.537,-1.976 -3.074,-5.49 -3.404,-7.576c-0.439,-2.196 -1.647,-5.6 -2.855,-7.576c-1.208,-1.976 -2.855,-6.039 -3.623,-9.113c-0.878,-3.074 -2.306,-6.478 -3.404,-7.686c-0.988,-1.098 -2.196,-4.282 -2.745,-7.027c-0.549,-2.745 -1.867,-6.258 -3.184,-7.905c-1.208,-1.757 -2.635,-5.6 -3.184,-8.674c-0.659,-3.074 -2.086,-7.576 -3.294,-9.881c-1.098,-2.415 -2.415,-6.697 -2.855,-9.772c-0.439,-2.964 -1.867,-7.686 -3.294,-10.43c-1.318,-2.745 -2.745,-7.905 -3.184,-11.528c-0.439,-3.623 -1.757,-8.235 -2.964,-10.321c-1.318,-2.196 -2.635,-7.246 -3.184,-12.297c-0.549,-4.721 -1.976,-10.43 -3.074,-12.736c-1.208,-2.306 -2.525,-7.686 -2.964,-11.858c-0.329,-4.282 -1.867,-11.858 -3.294,-17.018c-1.427,-5.16 -2.964,-13.834 -3.404,-19.214c-0.329,-5.49 -1.647,-12.846 -2.855,-16.469c-1.427,-4.721 -2.415,-12.187 -3.074,-26.131c-0.549,-10.76 -2.086,-25.911 -3.404,-33.487c-2.196,-12.846 -2.415,-17.896 -2.415,-64.449c0,-47.211 0.22,-51.384 2.415,-64.23c1.318,-7.576 2.855,-22.178 3.404,-32.389c0.659,-14.493 1.427,-19.873 3.074,-24.265c1.318,-3.184 2.525,-9.772 2.964,-15.92c0.439,-5.709 1.757,-13.285 2.964,-16.908c1.318,-3.623 2.635,-10.979 3.184,-16.25c0.659,-6.807 1.647,-10.87 3.294,-13.614c1.537,-2.525 2.635,-6.697 3.294,-12.517c0.549,-5.819 1.647,-9.991 3.184,-12.517c1.318,-2.196 2.635,-6.478 2.964,-10.101c0.329,-3.623 1.647,-8.235 3.074,-10.76c1.427,-2.415 2.855,-6.917 3.294,-9.881c0.439,-3.074 1.976,-7.795 3.404,-10.65c1.427,-2.855 2.635,-6.368 2.635,-7.686c0,-1.427 1.537,-5.49 3.294,-9.113c1.757,-3.623 3.294,-8.015 3.294,-9.772c0,-1.757 1.208,-5.27 2.745,-7.795c1.427,-2.635 2.964,-6.697 3.404,-9.113c0.439,-2.525 1.867,-6.148 3.294,-8.125c1.427,-1.867 2.635,-4.611 2.635,-5.929c0,-1.208 1.208,-4.172 2.745,-6.368c1.537,-2.306 3.294,-6.368 3.953,-9.223c0.549,-2.855 1.757,-5.819 2.525,-6.807c0.769,-0.878 3.404,-5.819 5.819,-10.979c6.478,-13.724 6.807,-14.273 10.211,-20.312c3.513,-6.148 8.344,-15.152 12.077,-22.508c1.318,-2.745 3.294,-5.929 4.392,-7.137c1.098,-1.208 2.306,-3.404 2.745,-4.941c0.439,-1.537 1.647,-3.733 2.635,-4.941c2.306,-2.745 9.991,-15.371 9.991,-16.469c0,-0.439 1.318,-2.415 3.074,-4.392c1.647,-1.976 4.502,-6.148 6.258,-9.333c1.867,-3.184 4.611,-7.246 6.148,-9.223c1.537,-1.867 3.184,-4.282 3.513,-5.49c0.878,-2.086 2.415,-4.282 11.748,-15.81c3.294,-4.062 8.015,-10.321 10.43,-13.834c2.415,-3.513 6.039,-8.235 8.125,-10.43c1.976,-2.196 8.015,-9.662 13.285,-16.579c8.235,-10.87 18.994,-23.167 43.369,-49.517c7.246,-7.686 36.671,-36.232 49.847,-48.2c5.709,-5.16 11.089,-10.101 12.077,-11.089c3.074,-3.184 20.641,-17.787 28.107,-23.496c4.062,-3.074 8.893,-6.807 10.76,-8.344c1.976,-1.537 4.721,-3.513 6.258,-4.282c3.074,-1.647 4.831,-2.855 16.469,-12.187c4.502,-3.513 8.564,-6.478 9.003,-6.478c0.549,0 3.843,-2.086 7.576,-4.721c3.623,-2.525 8.235,-5.6 10.321,-6.807c1.976,-1.318 4.611,-3.074 5.709,-4.062c1.098,-0.988 3.733,-2.635 5.929,-3.733c8.893,-4.611 13.285,-7.246 15.261,-9.223c1.208,-1.208 3.513,-2.415 5.16,-2.855c1.757,-0.439 4.611,-1.867 6.368,-3.184c1.867,-1.318 4.721,-2.745 6.478,-3.184c1.757,-0.439 4.721,-1.976 6.478,-3.513c1.757,-1.427 4.062,-2.635 5.051,-2.635c1.098,0 4.172,-1.427 6.807,-3.294c2.635,-1.757 5.6,-3.294 6.588,-3.294c0.878,0 3.294,-1.208 5.38,-2.745c2.086,-1.537 4.282,-2.745 5.051,-2.745c0.659,0 3.843,-1.427 7.137,-3.184c3.294,-1.647 7.466,-3.513 9.442,-3.843c1.976,-0.439 4.721,-1.757 6.258,-2.964c1.537,-1.208 4.721,-2.525 6.917,-2.855c2.306,-0.329 6.807,-2.086 10.101,-3.843c3.294,-1.647 7.137,-3.074 8.674,-3.074c1.537,0 4.831,-1.208 7.246,-2.635c2.525,-1.427 7.027,-2.964 9.991,-3.404c3.074,-0.439 7.027,-1.647 8.893,-2.855c1.976,-1.208 6.368,-2.635 9.881,-3.294c3.513,-0.659 7.795,-2.196 9.442,-3.404c1.757,-1.208 5.929,-2.525 9.442,-3.074c3.404,-0.439 8.015,-1.867 10.101,-3.074c2.086,-1.208 7.027,-2.415 10.87,-2.855c3.953,-0.329 10.101,-1.867 13.724,-3.294c3.733,-1.427 10.101,-2.964 14.383,-3.404c4.172,-0.439 9.662,-1.757 12.077,-3.074c2.964,-1.427 7.905,-2.525 14.822,-3.074c5.709,-0.439 13.944,-1.867 18.116,-3.184c4.721,-1.427 13.395,-2.635 22.508,-3.294c8.125,-0.549 17.567,-1.867 20.861,-2.855c8.344,-2.635 43.588,-3.623 108.477,-2.964c45.674,0.439 53.36,0.769 64.23,2.635Z" style="fill:#fff;fill-rule:nonzero;"/><path d="M1277.679,1112.203c2.196,1.098 6.148,2.635 8.784,3.294c5.6,1.537 12.626,7.576 15.92,13.724c1.976,3.733 2.415,6.258 2.415,14.932c-0.11,11.638 -1.976,16.908 -8.674,23.935c-3.843,4.172 -14.163,11.199 -16.469,11.199c-0.769,0 -3.623,1.427 -6.258,3.294c-2.635,1.757 -5.6,3.294 -6.588,3.294c-0.988,0 -3.623,1.427 -5.929,3.294c-2.306,1.757 -4.721,3.294 -5.49,3.294c-0.769,0 -2.635,0.988 -4.172,2.196c-1.537,1.318 -4.502,2.855 -6.478,3.513c-1.976,0.659 -4.611,2.086 -5.819,3.184c-1.208,1.098 -4.062,2.745 -6.258,3.623c-4.611,1.976 -13.066,7.576 -15.042,9.881c-0.769,0.878 -2.745,1.976 -4.502,2.306c-1.757,0.329 -3.623,1.318 -4.282,1.976c-0.549,0.769 -4.611,3.623 -8.893,6.258c-4.392,2.745 -10.65,7.246 -14.054,9.991c-3.513,2.745 -9.662,7.356 -13.944,10.211c-4.172,2.855 -12.736,9.881 -18.994,15.701c-6.148,5.819 -13.285,11.968 -15.81,13.724c-17.677,12.846 -58.191,53.031 -72.245,71.696c-2.086,2.745 -4.831,6.258 -6.039,7.686c-9.003,10.65 -14.822,18.116 -14.822,19.104c0,0.439 -2.855,4.502 -6.258,9.113c-3.513,4.611 -7.246,9.772 -8.235,11.528c-1.098,1.647 -3.404,5.27 -5.27,8.015c-1.757,2.745 -4.062,6.697 -5.051,8.784c-0.988,2.086 -2.855,5.051 -4.282,6.588c-1.318,1.537 -3.184,4.062 -3.953,5.6c-4.611,8.784 -6.917,12.736 -8.235,14.163c-0.769,0.988 -2.196,3.953 -3.184,6.588c-0.988,2.745 -2.635,5.929 -3.733,7.137c-1.098,1.208 -2.415,3.623 -2.745,5.38c-0.439,1.867 -1.757,4.502 -2.855,6.039c-1.098,1.537 -2.415,4.721 -3.074,6.917c-0.659,2.306 -2.086,5.38 -3.294,6.917c-1.208,1.537 -2.525,4.941 -2.964,7.466c-0.439,2.525 -1.976,6.697 -3.404,9.223c-1.427,2.525 -2.635,5.49 -2.635,6.697c0,1.208 -1.427,4.831 -3.074,8.125c-1.757,3.294 -3.513,7.356 -3.953,9.113c-0.439,1.757 -1.757,4.502 -2.964,6.148c-1.098,1.647 -2.415,5.38 -2.855,8.344c-0.329,2.855 -1.757,7.466 -3.074,10.211c-1.427,2.745 -2.855,7.905 -3.294,11.528c-0.439,3.623 -1.757,8.454 -2.855,10.76c-1.208,2.306 -2.745,9.003 -3.623,14.932c-0.878,5.929 -2.306,12.077 -3.404,13.614c-1.427,2.196 -2.086,6.807 -2.855,18.775c-0.439,8.784 -1.757,18.994 -2.745,22.837c-1.427,5.27 -2.086,15.92 -3.074,44.247l-1.208,37.33l-3.074,4.062c-1.647,2.196 -4.941,4.831 -7.137,5.929c-2.196,0.988 -5.49,2.855 -7.137,4.172c-2.635,1.867 -4.721,2.196 -14.932,2.306c-11.748,0 -11.858,0 -17.567,-3.843c-8.674,-5.929 -13.834,-14.493 -18.336,-30.193c-4.062,-14.054 -2.855,-83.553 1.647,-96.509c1.318,-3.513 2.525,-10.43 2.964,-15.371c0.329,-4.831 1.757,-12.626 3.294,-17.238c1.427,-4.611 3.184,-12.187 3.733,-16.799c0.549,-4.611 1.976,-10.211 3.074,-12.407c1.208,-2.306 2.415,-6.697 2.745,-9.772c0.329,-3.074 1.867,-7.905 3.404,-10.87c1.537,-2.855 2.855,-6.807 2.855,-8.784c0,-1.976 1.208,-5.709 2.635,-8.454c1.427,-2.635 3.074,-7.356 3.733,-10.43c0.659,-3.074 2.196,-7.246 3.404,-9.223c1.098,-2.086 2.415,-5.49 2.855,-7.576c0.439,-2.086 1.976,-5.929 3.404,-8.454c1.427,-2.525 2.635,-5.16 2.635,-5.929c0,-1.208 6.588,-15.81 8.893,-19.653c0.549,-0.878 3.184,-6.368 5.929,-12.077c2.745,-5.709 5.709,-11.638 6.588,-13.175c0.878,-1.537 2.306,-4.282 3.294,-6.258c0.878,-1.976 3.513,-6.807 5.709,-10.76c7.466,-12.846 11.089,-19.653 13.395,-24.594c1.318,-2.635 4.611,-7.686 7.356,-11.309c2.745,-3.623 5.27,-7.466 5.709,-8.454c0.329,-0.988 2.855,-4.611 5.709,-8.125c4.941,-6.478 5.6,-7.356 10.87,-15.591c1.537,-2.415 6.807,-9.113 11.638,-15.042c4.831,-5.819 10.65,-12.956 12.956,-15.92c2.306,-2.855 10.321,-11.748 17.896,-19.653c7.466,-7.905 15.042,-16.359 16.799,-18.665c3.733,-5.051 21.41,-22.398 33.048,-32.389c4.502,-3.843 10.101,-9.003 12.626,-11.309c2.415,-2.415 6.478,-5.6 9.003,-7.246c4.392,-2.855 12.517,-9.003 20.971,-15.92c2.196,-1.867 6.258,-4.831 9.003,-6.588c2.745,-1.757 7.686,-5.49 10.979,-8.235c6.917,-5.819 17.787,-13.175 19.434,-13.175c0.659,0 2.855,-1.318 5.051,-3.074c2.086,-1.647 5.49,-3.953 7.466,-5.16c8.015,-4.941 13.834,-8.235 17.457,-9.991c2.086,-0.988 5.27,-2.964 6.917,-4.392c1.757,-1.427 4.282,-2.635 5.6,-2.635c1.318,0 4.062,-1.208 6.148,-2.745c2.086,-1.537 4.282,-2.745 4.941,-2.745c0.659,0 4.611,-1.757 8.893,-3.843c4.172,-2.086 8.674,-3.843 9.881,-3.843c1.318,0 3.623,-0.988 5.16,-2.196c1.537,-1.208 4.941,-2.964 7.576,-3.953c2.525,-0.878 5.709,-2.306 6.917,-3.074c1.208,-0.769 4.831,-2.306 8.125,-3.404c3.184,-0.988 7.137,-2.635 8.784,-3.404c3.843,-2.086 6.039,-1.976 10.87,0.549Z" style="fill:#fff;fill-rule:nonzero;"/><path d="M1933.918,1270.416c96.838,7.137 170.181,56.105 194.775,130.106c12.956,39.087 12.846,73.123 -0.549,122.42c-21.629,79.601 -83.663,152.175 -171.169,200.155c-24.265,13.285 -76.417,35.464 -95.521,40.514c-4.611,1.208 -6.697,3.074 -3.513,3.074c3.294,0 33.048,15.81 45.784,24.265c19.543,13.175 34.475,25.472 52.152,43.259c37.879,37.989 61.924,79.491 69.17,119.127c1.976,10.87 1.757,23.935 -0.659,46.663c-7.027,66.865 -35.024,128.24 -84.322,185.333c-84.761,98.046 -231.117,165.35 -396.467,182.368c-43.149,4.502 -110.673,5.051 -142.732,1.318c-82.895,-9.772 -155.908,-36.561 -209.158,-76.746c-10.979,-8.344 -33.377,-30.633 -40.843,-40.734c-12.077,-16.359 -19.763,-31.84 -24.704,-49.847c-1.976,-7.137 -2.415,-11.528 -2.415,-28.217c0,-18.226 0.22,-20.641 2.964,-30.523c8.015,-28.876 26.68,-58.63 52.372,-83.663c4.282,-4.282 8.344,-8.784 8.784,-10.101c1.318,-3.294 10.65,-4.062 31.291,-2.525c53.47,3.843 103.755,15.481 110.782,25.362c1.537,2.306 1.318,2.635 -7.356,8.784c-13.395,9.552 -26.68,21.3 -35.354,31.511c-26.57,30.742 -36.561,70.707 -25.911,103.426c15.591,48.2 69.17,88.055 137.352,102.218c49.078,10.211 122.53,5.6 188.846,-11.748c107.488,-28.217 194.116,-86.298 246.488,-165.13c33.158,-49.847 47.98,-95.85 50.615,-157.115c1.318,-30.852 -2.306,-57.532 -11.748,-85.969c-16.469,-50.176 -45.455,-88.714 -78.173,-103.865c-11.748,-5.49 -18.226,-6.588 -38.757,-6.697c-17.128,0 -19.214,-0.22 -24.155,-2.525c-2.964,-1.427 -7.246,-4.611 -9.442,-7.027c-3.623,-4.062 -4.172,-5.27 -4.172,-9.991c0,-4.721 0.439,-5.819 3.294,-8.235c1.867,-1.537 5.49,-3.294 8.015,-4.062c16.579,-4.282 63.681,-25.033 85.969,-37.659c18.885,-10.76 48.09,-30.523 65.218,-44.137c17.677,-14.054 52.591,-48.639 66.865,-66.316c35.903,-44.137 58.191,-94.862 64.998,-148.003c2.086,-15.591 1.757,-46.772 -0.549,-59.508c-3.953,-22.727 -10.321,-40.185 -19.324,-53.14c-10.65,-15.481 -28.766,-27.668 -49.078,-32.719c-8.235,-2.086 -12.407,-2.415 -28.876,-2.415c-59.179,0.329 -118.907,20.971 -190.163,65.767c-64.559,40.624 -129.777,97.936 -190.383,167.107c-56.324,64.449 -113.417,145.916 -153.382,218.93c-33.487,61.265 -57.532,122.86 -66.535,170.071c-2.964,15.371 -4.721,37.11 -3.843,46.663c1.318,14.603 -3.733,19.653 -16.799,17.018c-21.849,-4.502 -52.262,-27.449 -73.013,-54.897c-20.092,-26.79 -26.79,-51.933 -20.641,-77.624c2.525,-10.65 12.517,-38.318 22.398,-61.814c40.075,-96.07 96.838,-186.87 166.009,-265.702c17.238,-19.653 53.031,-55.995 72.903,-74.001c126.922,-115.174 272.948,-180.831 428.746,-192.689c17.567,-1.318 26.68,-1.318 43.918,-0.11Z" style="fill:#fff;fill-rule:nonzero;"/><path d="M1769.117,1370.439c39.526,13.066 81.028,52.042 86.298,80.808c2.196,12.626 0.769,16.799 -15.81,44.467c-117.26,196.641 -241.986,462.014 -331.139,704.11c-5.49,15.042 -10.87,28.327 -11.748,29.315c-2.525,2.855 -9.333,2.525 -15.591,-0.769c-23.606,-11.968 -62.912,-59.728 -65.547,-79.601c-0.769,-5.6 3.294,-22.288 15.701,-64.23c27.339,-92.666 59.289,-179.184 117.37,-316.976c52.591,-124.946 112.649,-249.343 187.748,-389.22c2.415,-4.282 5.49,-8.564 7.027,-9.552c4.502,-2.745 14.163,-2.196 25.692,1.647Z" style="fill:#fff;fill-rule:nonzero;"/><path d="M2259.458,1636.58c21.41,9.442 46.114,24.594 55.336,33.817c9.881,9.772 14.932,21.52 14.932,34.366c0,6.258 -3.294,20.092 -6.368,27.119c-1.208,2.525 -12.736,19.983 -25.911,38.867c-13.066,18.885 -23.716,34.805 -23.716,35.464c0,3.184 15.042,-0.659 41.283,-10.43c57.532,-21.629 126.153,-55.446 141.525,-69.829c3.074,-2.855 3.623,-2.964 8.784,-2.086c7.246,1.318 33.926,14.712 45.894,23.057c11.089,7.795 13.944,12.077 14.822,22.508c1.537,19.653 -15.81,54.348 -49.956,99.913c-5.38,7.246 -32.719,42.6 -60.716,78.503c-28.107,35.903 -55.556,71.366 -61.155,78.832c-24.813,32.828 -45.235,66.974 -55.556,92.996c-14.493,36.671 -6.148,63.351 18.445,58.85c24.813,-4.611 56.434,-26.241 96.18,-65.876c23.057,-23.057 37.55,-40.624 54.019,-65.767c17.128,-26.131 18.994,-29.315 26.46,-46.553c34.915,-80.589 96.729,-160.19 163.813,-210.695c38.648,-29.315 81.357,-51.164 117.48,-60.387c33.817,-8.564 68.512,-9.552 102.548,-3.074c22.069,4.282 38.318,12.736 51.713,27.009c8.893,9.442 12.517,14.712 18.226,26.131c10.211,20.312 14.493,40.404 15.371,72.464c0.769,26.9 0.549,27.558 -10.43,32.719c-6.917,3.294 -8.125,3.513 -19.983,3.513c-10.76,0 -13.285,-0.329 -17.018,-2.306c-8.674,-4.721 -9.113,-6.039 -12.077,-31.731c-2.525,-21.19 -4.611,-33.158 -7.246,-41.173c-9.662,-29.754 -28.766,-42.161 -59.289,-38.648c-58.081,6.807 -124.726,69.5 -177.647,166.777c-22.398,41.392 -41.941,92.556 -50.286,131.643c-4.062,19.214 -4.062,20.202 -4.062,42.71c0,20.312 0.329,24.155 2.415,31.731c4.172,15.152 11.419,24.813 22.727,30.413c17.347,8.564 40.843,3.953 62.034,-12.077c29.864,-22.618 80.04,-78.942 118.468,-132.961c17.567,-24.704 19.543,-28.656 28.986,-56.764c9.991,-29.974 16.469,-54.348 19.104,-72.684c1.867,-12.736 1.976,-13.285 4.502,-13.285c1.427,0 5.38,-0.769 8.784,-1.757c15.81,-4.611 39.526,2.415 64.779,19.214c16.908,11.419 32.389,28.437 39.416,43.588c2.745,5.819 3.074,7.686 3.074,18.006c0,10.101 -0.439,12.407 -2.964,18.116c-23.716,54.019 -37.44,89.153 -46.882,120.444c-9.113,30.193 -11.309,41.832 -11.858,61.265c-0.769,26.46 1.098,29.315 15.481,24.155c24.813,-9.003 51.274,-28.656 79.491,-59.289c28.217,-30.523 48.858,-58.63 86.188,-117.699c19.324,-30.523 20.641,-33.268 56.215,-122.75c28.546,-71.696 43.808,-114.625 56.215,-158.104l2.086,-7.137l6.039,-0.988c3.184,-0.659 11.419,-1.098 18.006,-1.098c10.43,0.11 13.175,0.439 20.312,3.184c32.389,11.968 58.74,33.597 70.598,57.532c3.294,6.697 3.513,8.015 3.513,18.226c-0.11,10.87 -0.22,11.199 -6.478,26.351c-3.513,8.454 -11.528,27.009 -17.896,41.173c-87.945,196.751 -124.287,283.489 -132.082,315.878c-2.745,11.199 -2.415,14.054 1.318,12.956c35.793,-9.991 125.605,-103.426 221.235,-230.019c80.15,-106.171 137.352,-200.155 145.258,-238.473c0.659,-3.513 1.867,-6.478 2.855,-6.807c5.27,-2.086 19.653,10.87 31.072,27.888c13.724,20.532 21.19,41.941 17.896,51.384c-1.318,3.843 -57.313,84.761 -83.993,121.542c-62.143,85.42 -118.029,152.065 -178.086,211.903c-42.051,42.051 -67.633,63.9 -99.913,85.639c-46.663,31.401 -81.357,44.467 -117.809,44.467c-14.712,0 -26.131,-2.415 -37.001,-7.686c-15.81,-7.686 -25.253,-18.336 -30.852,-34.695c-2.745,-7.795 -3.074,-10.211 -3.074,-24.594c-0.11,-8.784 0.329,-18.775 0.769,-22.288l0.988,-6.368l-9.113,9.442c-31.84,33.158 -65.218,58.52 -92.117,70.049c-20.312,8.564 -37.33,12.187 -58.74,12.077c-39.636,0 -71.586,-13.724 -88.933,-38.099c-12.736,-18.006 -18.116,-35.903 -18.116,-60.277l0,-13.066l-17.347,16.799c-36.671,35.793 -66.535,57.862 -99.364,73.452c-30.413,14.493 -54.129,18.445 -81.467,13.724c-47.76,-8.235 -86.298,-37.001 -103.097,-77.075c-3.953,-9.552 -8.125,-24.374 -9.991,-35.903c-0.878,-5.38 -1.757,-9.991 -1.976,-10.211c-0.329,-0.22 -5.38,5.16 -11.528,11.968c-12.956,14.712 -34.146,35.464 -47.98,47.102c-24.594,20.641 -44.357,33.817 -70.268,46.553c-28.986,14.383 -51.493,20.861 -77.624,22.288c-45.894,2.635 -76.197,-7.466 -94.094,-31.401c-20.202,-26.79 -24.704,-58.52 -14.273,-98.595c4.721,-18.445 21.629,-56.324 35.793,-80.479c8.015,-13.834 22.398,-34.915 42.6,-62.692c9.003,-12.407 18.885,-26.241 21.849,-30.742c3.074,-4.502 8.784,-12.297 12.736,-17.128c3.953,-4.941 15.042,-19.763 24.704,-32.938c16.689,-22.727 37.769,-49.737 47.87,-61.155l4.611,-5.38l-5.38,0.769c-5.051,0.769 -17.457,3.733 -38.318,9.333c-14.493,3.843 -28.656,5.49 -46.882,5.49l-17.238,0l-11.419,16.14c-20.861,29.644 -50.176,74.44 -69.829,107.159c-7.356,12.297 -9.881,13.944 -21.08,13.944c-11.199,0 -21.629,-3.184 -27.449,-8.454c-7.027,-6.368 -6.807,-7.246 12.846,-39.636c27.229,-44.686 39.965,-65.328 52.701,-85.09l11.968,-18.555l-5.051,-5.27c-7.905,-8.125 -10.101,-15.152 -9.552,-30.193c0.439,-10.211 1.098,-13.944 4.611,-24.155c7.466,-22.178 25.911,-57.422 48.639,-93.215c10.979,-17.128 20.971,-36.232 26.241,-49.847c1.647,-4.282 3.184,-7.905 3.404,-7.905c0.11,0 5.27,2.196 11.309,4.941Z" style="fill:#fff;fill-rule:nonzero;"/><path d="M3432.938,2359.574l-14.603,15.371l-13.834,0l5.709,-8.015c3.074,-4.282 7.905,-11.199 10.65,-15.261l5.16,-7.466l21.629,0l-14.712,15.371Z" style="fill:#fff;fill-rule:nonzero;"/><path d="M2946.769,2383.839c16.469,2.635 34.585,11.309 47.102,22.508l5.6,5.051l-5.819,5.27l-5.709,5.27l-4.172,-3.843c-10.87,-9.772 -27.009,-17.787 -40.734,-20.202c-31.182,-5.38 -63.241,13.285 -73.342,42.71c-3.294,9.662 -3.513,27.339 -0.439,36.452c3.074,9.333 8.125,17.457 15.371,25.033c8.015,8.344 15.81,13.285 27.558,17.347c7.686,2.745 10.43,3.074 22.508,3.074c11.638,0.11 14.822,-0.329 21.08,-2.415c17.787,-6.148 30.633,-18.994 35.354,-35.244c0.988,-3.294 1.757,-6.368 1.757,-6.917c0,-0.439 -10.65,-0.878 -23.606,-0.878l-23.606,0l0,-14.273l64.01,0l-0.769,8.125c-2.964,32.609 -21.41,55.666 -51.274,63.9c-9.772,2.745 -35.683,2.745 -46.553,0.11c-29.205,-7.246 -52.262,-30.742 -58.081,-59.289c-3.623,-17.238 -1.427,-33.268 6.588,-50.066c4.172,-8.454 6.588,-11.858 13.944,-19.214c9.991,-9.881 17.677,-14.932 29.095,-18.885c13.395,-4.611 29.644,-6.039 44.137,-3.623Z" style="fill:#fff;fill-rule:nonzero;"/><path d="M3844.007,2385.925c18.775,7.027 30.523,29.974 26.131,50.835c-2.964,14.493 -10.76,25.472 -43.808,61.155l-19.763,21.41l33.487,0.329l33.377,0.22l0,14.273l-101.12,0l26.68,-28.876c44.906,-48.639 48.2,-52.591 53.25,-62.363c2.525,-5.051 2.964,-7.246 3.074,-15.261c0,-10.54 -1.427,-14.163 -8.125,-21.19c-6.478,-6.917 -11.419,-9.003 -21.52,-9.003c-7.686,0 -9.552,0.439 -14.712,3.294c-9.003,4.941 -14.493,13.395 -16.908,26.021l-1.208,6.368l-15.152,0l0.769,-6.148c2.635,-20.971 17.238,-38.428 36.342,-43.259c6.917,-1.647 22.069,-0.549 29.205,2.196Z" style="fill:#fff;fill-rule:nonzero;"/><path d="M2385.721,2385.925l0,14.273l-58.191,0l0,47.211l58.191,0l0,14.273l-58.191,0l0,72.464l-15.371,0l0,-148.222l73.562,0Z" style="fill:#fff;fill-rule:nonzero;"/><path d="M2658.011,2385.925l0,14.273l-32.938,0l0,133.949l-15.371,0l0,-133.949l-32.938,0l0,-14.273l81.248,0Z" style="fill:#fff;fill-rule:nonzero;"/><path d="M3387.044,2385.925l0,14.273l-58.191,0l0,47.211l58.191,0l0,14.273l-58.191,0l0,72.464l-15.371,0l0,-148.222l73.562,0Z" style="fill:#fff;fill-rule:nonzero;"/><rect x="3412.297" y="2385.925" width="15.371" height="148.222" style="fill:#fff;fill-rule:nonzero;"/><path d="M3751.561,2385.925l0,14.273l-49.407,0l-0.549,2.415c-0.22,1.427 -1.757,9.662 -3.294,18.445c-1.537,8.784 -2.964,16.689 -3.184,17.677c-0.329,1.537 0.329,1.537 5.819,0.329c35.793,-8.454 63.9,23.386 54.129,61.155c-6.368,24.155 -27.668,38.867 -53.47,36.891c-18.665,-1.427 -33.377,-13.285 -39.087,-31.621c-1.098,-3.623 -2.086,-7.137 -2.086,-7.686c0,-0.549 3.404,-0.988 7.686,-0.988l7.576,0l1.098,3.843c2.964,10.76 11.309,18.885 22.178,21.41c22.947,5.49 44.247,-14.273 42.49,-39.416c-1.976,-27.339 -27.778,-38.099 -60.497,-25.253l-5.38,2.086l0.659,-2.964c0.329,-1.757 3.184,-16.908 6.148,-33.817c2.964,-16.908 5.819,-32.06 6.148,-33.817l0.659,-2.964l62.363,0Z" style="fill:#fff;fill-rule:nonzero;"/><path d="M3464.01,752.847c24.813,4.282 45.894,15.042 64.449,32.719c25.143,24.155 38.648,55.336 38.648,89.592c0,32.279 -11.968,61.924 -34.475,85.42c-24.155,25.253 -55.336,38.648 -89.592,38.648c-32.279,0 -61.924,-11.858 -85.09,-34.146c-20.422,-19.653 -32.609,-42.161 -37.22,-68.951c-11.528,-66.974 33.817,-131.314 100.901,-143.281c11.968,-2.086 29.864,-2.086 42.381,0Zm-32.17,31.182c-22.398,2.745 -44.796,15.042 -59.179,32.279c-7.795,9.333 -15.481,24.374 -18.665,36.342c-3.294,12.297 -3.294,32.719 0,44.906c9.991,37.55 41.283,64.449 79.601,68.731c44.576,5.051 86.847,-24.484 98.485,-68.621c2.745,-10.43 3.294,-30.413 1.098,-40.624c-7.466,-34.475 -33.817,-62.143 -67.523,-70.817c-9.662,-2.415 -24.155,-3.404 -33.817,-2.196Z" style="fill:#fff;fill-rule:nonzero;"/><path d="M3871.346,1724.525c37.659,6.478 67.084,26.241 81.357,54.787c3.843,7.576 9.333,25.143 11.199,35.573c1.208,7.246 2.306,9.772 6.368,15.591c10.211,14.383 16.03,29.205 19.543,50.066c18.555,108.147 -47.87,251.868 -152.724,330.59c-27.339,20.532 -57.862,35.793 -86.957,43.588c-33.926,9.113 -76.087,7.576 -109.026,-3.953c-59.069,-20.641 -100.242,-64.888 -119.346,-128.349c-6.478,-21.3 -7.795,-31.621 -7.795,-57.642c-0.11,-29.095 3.184,-49.737 12.187,-77.954c25.033,-78.503 82.455,-155.139 154.59,-206.633c42.6,-30.413 88.823,-50.176 130.106,-55.666c16.469,-2.196 47.651,-2.196 60.497,0Zm-25.911,51.493c-27.998,7.356 -62.253,27.339 -86.847,50.615c-7.466,7.027 -22.288,23.935 -31.291,35.573c-39.745,51.384 -70.268,123.958 -80.15,190.493c-2.306,15.042 -1.976,52.372 0.439,64.779c10.321,51.603 34.036,75.099 75.758,75.209c32.17,0 60.167,-14.383 94.643,-48.858c52.921,-52.811 96.399,-138.011 109.465,-214.208c3.184,-19.104 3.623,-55.666 0.659,-62.253c-1.867,-3.953 -2.196,-4.172 -5.49,-3.513c-10.321,2.196 -23.935,11.638 -38.318,26.57c-13.834,14.273 -23.057,28.656 -26.79,41.283l-1.757,6.258l-8.893,0c-9.991,0 -13.285,-1.427 -17.018,-7.027c-5.929,-9.113 -9.772,-32.499 -9.003,-55.336c0.439,-10.321 0.769,-12.407 3.404,-16.689c3.843,-6.588 16.689,-19.214 27.339,-26.9c12.846,-9.333 35.903,-22.398 42.93,-24.484c5.819,-1.757 6.258,-2.086 5.709,-4.611c-3.513,-16.469 -10.211,-25.472 -21.19,-28.546c-7.137,-1.976 -22.837,-1.208 -33.597,1.647Z" style="fill:#fff;fill-rule:nonzero;"/><path d="M2504.848,2385.266c15.371,4.172 31.182,14.712 40.843,27.449c21.41,28.327 20.751,69.609 -1.647,96.399c-9.991,11.858 -21.629,19.873 -35.903,24.704c-7.905,2.635 -10.321,2.964 -24.155,2.964c-13.614,-0.11 -16.359,-0.439 -24.155,-2.964c-44.357,-14.603 -65.657,-64.23 -45.674,-106.72c10.87,-22.947 28.546,-37.22 53.36,-42.93c8.235,-1.867 28.217,-1.318 37.33,1.098Zm-35.024,13.395c-16.799,4.062 -33.926,17.567 -41.063,32.499c-12.297,25.362 -7.686,54.458 11.528,73.672c13.175,13.175 28.656,19.104 46.992,18.006c40.185,-2.415 66.645,-39.526 56.544,-79.162c-2.964,-11.748 -6.917,-18.555 -15.92,-27.668c-15.591,-15.92 -37.33,-22.398 -58.081,-17.347Z" style="fill:#fff;fill-rule:nonzero;"/><path d="M2770.55,2385.266c15.371,4.172 31.182,14.712 40.843,27.449c21.41,28.327 20.751,69.609 -1.647,96.399c-9.991,11.858 -21.629,19.873 -35.903,24.704c-7.905,2.635 -10.321,2.964 -24.155,2.964c-13.614,-0.11 -16.359,-0.439 -24.155,-2.964c-44.357,-14.603 -65.657,-64.23 -45.674,-106.72c10.87,-22.947 28.546,-37.22 53.36,-42.93c8.235,-1.867 28.217,-1.318 37.33,1.098Zm-35.024,13.395c-16.799,4.062 -33.926,17.567 -41.063,32.499c-12.297,25.362 -7.686,54.458 11.528,73.672c13.175,13.175 28.656,19.104 46.992,18.006c40.185,-2.415 66.645,-39.526 56.544,-79.162c-2.964,-11.748 -6.917,-18.555 -15.92,-27.668c-15.591,-15.92 -37.33,-22.398 -58.081,-17.347Z" style="fill:#fff;fill-rule:nonzero;"/><path d="M3947.872,2384.168c27.558,7.356 41.392,36.781 39.416,83.553c-0.439,8.454 -1.427,18.555 -2.306,22.508c-4.941,22.398 -16.03,37.55 -32.499,44.137c-4.721,1.976 -8.344,2.415 -16.469,2.525c-9.442,0 -11.089,-0.329 -17.787,-3.513c-14.493,-6.807 -24.923,-21.739 -28.876,-41.502c-3.843,-18.555 -3.294,-52.372 1.208,-69.39c7.466,-28.876 31.84,-45.125 57.313,-38.318Zm-18.445,13.724c-8.235,2.525 -17.128,10.76 -20.971,19.214c-4.721,10.87 -5.819,18.775 -5.819,42.93c0,24.155 1.098,32.06 5.819,42.82c4.831,10.87 15.591,18.994 26.46,19.983c5.819,0.549 7.356,0.22 13.614,-2.855c10.87,-5.27 16.359,-13.505 20.641,-30.523c2.196,-8.344 2.415,-12.407 2.415,-30.523c-0.11,-22.727 -1.647,-31.731 -7.466,-43.259c-7.137,-13.944 -22.069,-21.629 -34.695,-17.787Z" style="fill:#fff;fill-rule:nonzero;"/><path d="M3102.677,2388.56c18.116,5.6 28.546,20.861 27.119,39.855c-1.757,22.727 -16.469,34.366 -46.772,36.781l-3.623,0.329l21.08,27.449c11.638,15.042 23.606,30.523 26.68,34.366l5.38,6.917l-19.763,-0.659l-26.241,-34.036c-25.362,-32.828 -26.46,-34.036 -30.303,-34.366l-4.062,-0.329l0,69.28l-15.371,0l0,-148.442l29.974,0.549c23.935,0.329 31.072,0.878 35.903,2.306Zm-50.505,11.419l0,50.725l18.445,0c27.888,0 36.012,-2.964 41.502,-14.712c4.392,-9.333 3.074,-19.104 -3.513,-26.9c-6.148,-7.137 -9.991,-8.125 -34.695,-8.674l-21.739,-0.439Z" style="fill:#fff;fill-rule:nonzero;"/><path d="M3255.401,2456.852c18.006,38.538 33.487,71.805 34.475,73.672l1.647,3.623l-8.564,0l-8.454,-0.11l-11.089,-23.825l-10.979,-23.825l-31.401,-0.329l-31.291,-0.22l-22.837,48.309l-8.564,0c-4.721,0 -8.344,-0.329 -8.125,-0.878c0.329,-0.439 15.92,-33.377 34.805,-73.233c18.885,-39.855 34.475,-72.903 34.805,-73.342c0.329,-0.439 1.098,-0.659 1.647,-0.549c0.659,0.22 15.92,32.06 33.926,70.707Zm-46.553,-11.528c-6.588,13.944 -11.748,25.582 -11.419,25.802c0.22,0.22 11.089,0.329 24.045,0.22l23.716,-0.329l-11.528,-24.704c-6.258,-13.614 -11.748,-25.033 -12.187,-25.472c-0.439,-0.329 -6.148,10.65 -12.626,24.484Z" style="fill:#fff;fill-rule:nonzero;"/><path d="M3554.041,2456.852c18.006,38.538 33.487,71.805 34.475,73.672l1.647,3.623l-8.564,0l-8.454,-0.11l-11.089,-23.825l-10.979,-23.825l-31.401,-0.329l-31.291,-0.22l-22.837,48.309l-8.564,0c-4.721,0 -8.344,-0.329 -8.125,-0.878c0.329,-0.439 15.92,-33.377 34.805,-73.233c18.885,-39.855 34.475,-72.903 34.805,-73.342c0.329,-0.439 1.098,-0.659 1.647,-0.549c0.659,0.22 15.92,32.06 33.926,70.707Zm-46.553,-11.528c-6.588,13.944 -11.748,25.582 -11.419,25.802c0.22,0.22 11.089,0.329 24.045,0.22l23.716,-0.329l-11.528,-24.704c-6.258,-13.614 -11.748,-25.033 -12.187,-25.472c-0.439,-0.329 -6.148,10.65 -12.626,24.484Z" style="fill:#fff;fill-rule:nonzero;"/></g></svg>